<mxfile host="Electron" modified="2025-02-26T22:56:43.053Z" agent="Mozilla/5.0 (Windows NT 10.0; Win64; x64) AppleWebKit/537.36 (KHTML, like Gecko) draw.io/22.0.3 Chrome/114.0.5735.289 Electron/25.8.4 Safari/537.36" etag="DSjh2tL9r_I2Ecl8SOw4" version="22.0.3" type="device">
  <diagram name="Page-1" id="ivDLOyq3tkPovrDcPKz_">
    <mxGraphModel dx="437" dy="565" grid="1" gridSize="10" guides="1" tooltips="1" connect="1" arrows="1" fold="1" page="1" pageScale="1" pageWidth="3300" pageHeight="4681" math="0" shadow="0">
      <root>
        <mxCell id="0" />
        <mxCell id="1" parent="0" />
        <mxCell id="b_guqB0zNDxJis5gTraW-8" value="" style="ellipse;whiteSpace=wrap;html=1;fillColor=none;strokeColor=#000000;" vertex="1" parent="1">
          <mxGeometry x="170" y="470" width="470" height="80" as="geometry" />
        </mxCell>
        <mxCell id="b_guqB0zNDxJis5gTraW-9" value="" style="group;strokeColor=none;container=0;" vertex="1" connectable="0" parent="1">
          <mxGeometry x="240" y="420" width="320" height="70" as="geometry" />
        </mxCell>
        <mxCell id="b_guqB0zNDxJis5gTraW-10" value="" style="endArrow=none;html=1;rounded=0;exitX=0;exitY=0.5;exitDx=0;exitDy=0;strokeColor=#000000;" edge="1" parent="1" source="b_guqB0zNDxJis5gTraW-8">
          <mxGeometry width="50" height="50" relative="1" as="geometry">
            <mxPoint x="250" y="360" as="sourcePoint" />
            <mxPoint x="310" y="290" as="targetPoint" />
          </mxGeometry>
        </mxCell>
        <mxCell id="b_guqB0zNDxJis5gTraW-11" value="" style="endArrow=none;html=1;rounded=0;strokeColor=#000000;" edge="1" parent="1">
          <mxGeometry width="50" height="50" relative="1" as="geometry">
            <mxPoint x="500" y="290" as="sourcePoint" />
            <mxPoint x="640" y="510" as="targetPoint" />
          </mxGeometry>
        </mxCell>
        <mxCell id="b_guqB0zNDxJis5gTraW-27" value="" style="endArrow=none;html=1;rounded=0;strokeColor=#000000;" edge="1" parent="1">
          <mxGeometry width="50" height="50" relative="1" as="geometry">
            <mxPoint x="351.91" y="278.8" as="sourcePoint" />
            <mxPoint x="399.995" y="258" as="targetPoint" />
          </mxGeometry>
        </mxCell>
        <mxCell id="b_guqB0zNDxJis5gTraW-28" value="" style="endArrow=none;html=1;rounded=0;strokeColor=#000000;" edge="1" parent="1">
          <mxGeometry width="50" height="50" relative="1" as="geometry">
            <mxPoint x="399.995" y="289.2" as="sourcePoint" />
            <mxPoint x="448.08000000000004" y="268.4" as="targetPoint" />
          </mxGeometry>
        </mxCell>
        <mxCell id="b_guqB0zNDxJis5gTraW-29" value="" style="endArrow=none;html=1;rounded=0;strokeColor=#000000;" edge="1" parent="1">
          <mxGeometry width="50" height="50" relative="1" as="geometry">
            <mxPoint x="399.995" y="258" as="sourcePoint" />
            <mxPoint x="448.08000000000004" y="268.4" as="targetPoint" />
          </mxGeometry>
        </mxCell>
        <mxCell id="b_guqB0zNDxJis5gTraW-30" value="" style="endArrow=none;html=1;rounded=0;strokeColor=#000000;" edge="1" parent="1">
          <mxGeometry width="50" height="50" relative="1" as="geometry">
            <mxPoint x="351.91" y="278.8" as="sourcePoint" />
            <mxPoint x="399.995" y="289.2" as="targetPoint" />
          </mxGeometry>
        </mxCell>
        <mxCell id="b_guqB0zNDxJis5gTraW-31" value="" style="endArrow=none;html=1;rounded=0;strokeColor=#000000;" edge="1" parent="1">
          <mxGeometry width="50" height="50" relative="1" as="geometry">
            <mxPoint x="399.995" y="289.2" as="sourcePoint" />
            <mxPoint x="399.995" y="310" as="targetPoint" />
          </mxGeometry>
        </mxCell>
        <mxCell id="b_guqB0zNDxJis5gTraW-32" value="" style="endArrow=none;html=1;rounded=0;strokeColor=#000000;" edge="1" parent="1">
          <mxGeometry width="50" height="50" relative="1" as="geometry">
            <mxPoint x="351.91" y="278.8" as="sourcePoint" />
            <mxPoint x="351.91" y="299.6" as="targetPoint" />
          </mxGeometry>
        </mxCell>
        <mxCell id="b_guqB0zNDxJis5gTraW-33" value="" style="endArrow=none;html=1;rounded=0;strokeColor=#000000;" edge="1" parent="1">
          <mxGeometry width="50" height="50" relative="1" as="geometry">
            <mxPoint x="351.91" y="299.6" as="sourcePoint" />
            <mxPoint x="399.995" y="310" as="targetPoint" />
          </mxGeometry>
        </mxCell>
        <mxCell id="b_guqB0zNDxJis5gTraW-34" value="" style="endArrow=none;html=1;rounded=0;strokeColor=#000000;" edge="1" parent="1">
          <mxGeometry width="50" height="50" relative="1" as="geometry">
            <mxPoint x="399.995" y="310" as="sourcePoint" />
            <mxPoint x="448.08000000000004" y="289.2" as="targetPoint" />
          </mxGeometry>
        </mxCell>
        <mxCell id="b_guqB0zNDxJis5gTraW-35" value="" style="endArrow=none;html=1;rounded=0;strokeColor=#000000;" edge="1" parent="1">
          <mxGeometry width="50" height="50" relative="1" as="geometry">
            <mxPoint x="448.08000000000004" y="268.4" as="sourcePoint" />
            <mxPoint x="448.08000000000004" y="289.2" as="targetPoint" />
          </mxGeometry>
        </mxCell>
        <mxCell id="b_guqB0zNDxJis5gTraW-36" value="" style="endArrow=none;html=1;rounded=0;strokeColor=#000000;" edge="1" parent="1">
          <mxGeometry width="50" height="50" relative="1" as="geometry">
            <mxPoint x="399.995" y="273.6" as="sourcePoint" />
            <mxPoint x="399.995" y="232" as="targetPoint" />
          </mxGeometry>
        </mxCell>
        <mxCell id="b_guqB0zNDxJis5gTraW-37" value="" style="endArrow=none;html=1;rounded=0;strokeColor=#000000;" edge="1" parent="1">
          <mxGeometry width="50" height="50" relative="1" as="geometry">
            <mxPoint x="375.95250000000004" y="273.6" as="sourcePoint" />
            <mxPoint x="399.995" y="263.2" as="targetPoint" />
          </mxGeometry>
        </mxCell>
        <mxCell id="b_guqB0zNDxJis5gTraW-38" value="" style="endArrow=none;html=1;rounded=0;strokeColor=#000000;" edge="1" parent="1">
          <mxGeometry width="50" height="50" relative="1" as="geometry">
            <mxPoint x="399.995" y="263.2" as="sourcePoint" />
            <mxPoint x="424.0375" y="268.4" as="targetPoint" />
          </mxGeometry>
        </mxCell>
        <mxCell id="b_guqB0zNDxJis5gTraW-39" value="" style="endArrow=none;html=1;rounded=0;strokeColor=#000000;" edge="1" parent="1">
          <mxGeometry width="50" height="50" relative="1" as="geometry">
            <mxPoint x="399.995" y="278.8" as="sourcePoint" />
            <mxPoint x="424.0375" y="268.4" as="targetPoint" />
          </mxGeometry>
        </mxCell>
        <mxCell id="b_guqB0zNDxJis5gTraW-40" value="" style="endArrow=none;html=1;rounded=0;strokeColor=#000000;" edge="1" parent="1">
          <mxGeometry width="50" height="50" relative="1" as="geometry">
            <mxPoint x="375.95250000000004" y="273.6" as="sourcePoint" />
            <mxPoint x="399.995" y="278.8" as="targetPoint" />
          </mxGeometry>
        </mxCell>
        <mxCell id="b_guqB0zNDxJis5gTraW-41" value="" style="endArrow=none;html=1;rounded=0;strokeColor=#000000;" edge="1" parent="1">
          <mxGeometry width="50" height="50" relative="1" as="geometry">
            <mxPoint x="399.995" y="284" as="sourcePoint" />
            <mxPoint x="399.995" y="278.8" as="targetPoint" />
          </mxGeometry>
        </mxCell>
        <mxCell id="b_guqB0zNDxJis5gTraW-42" value="" style="endArrow=none;html=1;rounded=0;strokeColor=#000000;" edge="1" parent="1">
          <mxGeometry width="50" height="50" relative="1" as="geometry">
            <mxPoint x="375.95250000000004" y="273.6" as="sourcePoint" />
            <mxPoint x="375.95250000000004" y="278.8" as="targetPoint" />
          </mxGeometry>
        </mxCell>
        <mxCell id="b_guqB0zNDxJis5gTraW-43" value="" style="endArrow=none;html=1;rounded=0;strokeColor=#000000;" edge="1" parent="1">
          <mxGeometry width="50" height="50" relative="1" as="geometry">
            <mxPoint x="424.0375" y="268.4" as="sourcePoint" />
            <mxPoint x="424.0375" y="273.6" as="targetPoint" />
          </mxGeometry>
        </mxCell>
        <mxCell id="b_guqB0zNDxJis5gTraW-44" value="" style="endArrow=none;html=1;rounded=0;strokeColor=#000000;" edge="1" parent="1">
          <mxGeometry width="50" height="50" relative="1" as="geometry">
            <mxPoint x="399.995" y="284" as="sourcePoint" />
            <mxPoint x="424.0375" y="273.6" as="targetPoint" />
          </mxGeometry>
        </mxCell>
        <mxCell id="b_guqB0zNDxJis5gTraW-45" value="" style="endArrow=none;html=1;rounded=0;strokeColor=#000000;" edge="1" parent="1">
          <mxGeometry width="50" height="50" relative="1" as="geometry">
            <mxPoint x="375.95250000000004" y="278.8" as="sourcePoint" />
            <mxPoint x="399.995" y="284" as="targetPoint" />
          </mxGeometry>
        </mxCell>
        <mxCell id="b_guqB0zNDxJis5gTraW-46" value="" style="shape=cylinder3;whiteSpace=wrap;html=1;boundedLbl=1;backgroundOutline=1;size=3.3333333333333997;strokeColor=#000000;fillColor=none;" vertex="1" parent="1">
          <mxGeometry x="424.0375" y="180" width="6.010625" height="41.599999999999994" as="geometry" />
        </mxCell>
        <mxCell id="b_guqB0zNDxJis5gTraW-47" value="" style="endArrow=none;html=1;rounded=0;strokeColor=#000000;" edge="1" parent="1">
          <mxGeometry width="50" height="50" relative="1" as="geometry">
            <mxPoint x="375.95250000000004" y="242.4" as="sourcePoint" />
            <mxPoint x="424.0375" y="221.6" as="targetPoint" />
          </mxGeometry>
        </mxCell>
        <mxCell id="b_guqB0zNDxJis5gTraW-48" value="" style="shape=cylinder3;whiteSpace=wrap;html=1;boundedLbl=1;backgroundOutline=1;size=3.3333333333333997;strokeColor=#000000;fillColor=none;" vertex="1" parent="1">
          <mxGeometry x="396.9896875" y="190.4" width="6.010625" height="41.599999999999994" as="geometry" />
        </mxCell>
        <mxCell id="b_guqB0zNDxJis5gTraW-49" value="" style="shape=cylinder3;whiteSpace=wrap;html=1;boundedLbl=1;backgroundOutline=1;size=3.3333333333333997;strokeColor=#000000;fillColor=none;" vertex="1" parent="1">
          <mxGeometry x="370.5429375" y="200.8" width="6.010625" height="41.599999999999994" as="geometry" />
        </mxCell>
        <mxCell id="b_guqB0zNDxJis5gTraW-2" value="" style="verticalLabelPosition=bottom;verticalAlign=top;html=1;shadow=0;dashed=0;strokeWidth=1;shape=mxgraph.android.phone2;strokeColor=#000000;" vertex="1" parent="1">
          <mxGeometry x="240" y="420" width="40" height="70" as="geometry" />
        </mxCell>
        <mxCell id="b_guqB0zNDxJis5gTraW-3" value="" style="verticalLabelPosition=bottom;verticalAlign=top;html=1;shadow=0;dashed=0;strokeWidth=1;shape=mxgraph.android.phone2;strokeColor=#000000;" vertex="1" parent="1">
          <mxGeometry x="520" y="420" width="40" height="70" as="geometry" />
        </mxCell>
        <mxCell id="b_guqB0zNDxJis5gTraW-4" value="" style="verticalLabelPosition=bottom;verticalAlign=top;html=1;shadow=0;dashed=0;strokeWidth=1;shape=mxgraph.android.phone2;strokeColor=#000000;" vertex="1" parent="1">
          <mxGeometry x="300" y="420" width="40" height="70" as="geometry" />
        </mxCell>
        <mxCell id="b_guqB0zNDxJis5gTraW-5" value="" style="verticalLabelPosition=bottom;verticalAlign=top;html=1;shadow=0;dashed=0;strokeWidth=1;shape=mxgraph.android.phone2;strokeColor=#000000;" vertex="1" parent="1">
          <mxGeometry x="360" y="420" width="40" height="70" as="geometry" />
        </mxCell>
        <mxCell id="b_guqB0zNDxJis5gTraW-7" value="" style="endArrow=none;dashed=1;html=1;dashPattern=1 3;strokeWidth=2;rounded=0;strokeColor=#000000;" edge="1" parent="1">
          <mxGeometry width="50" height="50" relative="1" as="geometry">
            <mxPoint x="420" y="454.71" as="sourcePoint" />
            <mxPoint x="500" y="454.71" as="targetPoint" />
          </mxGeometry>
        </mxCell>
      </root>
    </mxGraphModel>
  </diagram>
</mxfile>
